<svg width="23" height="22" viewBox="0 0 23 22" fill="none" xmlns="http://www.w3.org/2000/svg">
<path d="M2.75928 11.0068C2.75928 10.8574 2.79525 10.7218 2.86719 10.6001C2.94466 10.4784 3.04427 10.3815 3.16602 10.3096C3.28776 10.2321 3.42334 10.1934 3.57275 10.1934H10.6865V3.07959C10.6865 2.93571 10.7225 2.8029 10.7944 2.68115C10.8664 2.55387 10.9632 2.45426 11.085 2.38232C11.2122 2.30485 11.3478 2.26611 11.4917 2.26611C11.6411 2.26611 11.7767 2.30485 11.8984 2.38232C12.0257 2.45426 12.1253 2.55387 12.1973 2.68115C12.2692 2.8029 12.3052 2.93571 12.3052 3.07959V10.1934H19.4189C19.5684 10.1934 19.7039 10.2321 19.8257 10.3096C19.9474 10.3815 20.0443 10.4784 20.1162 10.6001C20.1937 10.7218 20.2324 10.8574 20.2324 11.0068C20.2324 11.1507 20.1937 11.2863 20.1162 11.4136C20.0443 11.5353 19.9474 11.6322 19.8257 11.7041C19.7039 11.776 19.5684 11.812 19.4189 11.812H12.3052V18.9258C12.3052 19.0752 12.2692 19.2108 12.1973 19.3325C12.1253 19.4543 12.0257 19.5511 11.8984 19.623C11.7767 19.7005 11.6411 19.7393 11.4917 19.7393C11.3478 19.7393 11.2122 19.7005 11.085 19.623C10.9632 19.5511 10.8664 19.4543 10.7944 19.3325C10.7225 19.2108 10.6865 19.0752 10.6865 18.9258V11.812H3.57275C3.42334 11.812 3.28776 11.776 3.16602 11.7041C3.04427 11.6322 2.94466 11.5353 2.86719 11.4136C2.79525 11.2863 2.75928 11.1507 2.75928 11.0068Z" fill="black"/>
</svg>
