<svg width="22" height="24" viewBox="0 0 22 24" fill="none" xmlns="http://www.w3.org/2000/svg">
<path d="M7.8042 20.5938C7.63265 20.5938 7.4943 20.5412 7.38916 20.436C7.28402 20.3364 7.22868 20.2036 7.22314 20.0376L6.88281 8.3418C6.87728 8.17578 6.92708 8.04297 7.03223 7.94336C7.1429 7.83822 7.28678 7.78564 7.46387 7.78564C7.62988 7.78564 7.76546 7.83545 7.87061 7.93506C7.98128 8.03467 8.03939 8.16471 8.04492 8.3252L8.38525 20.0376C8.39079 20.1981 8.33822 20.3309 8.22754 20.436C8.1224 20.5412 7.98128 20.5938 7.8042 20.5938ZM11 20.5938C10.8229 20.5938 10.679 20.5412 10.5684 20.436C10.4577 20.3309 10.4023 20.1981 10.4023 20.0376V8.3418C10.4023 8.17578 10.4577 8.04297 10.5684 7.94336C10.679 7.83822 10.8229 7.78564 11 7.78564C11.1771 7.78564 11.321 7.83822 11.4316 7.94336C11.5423 8.04297 11.5977 8.17578 11.5977 8.3418V20.0376C11.5977 20.1981 11.5423 20.3309 11.4316 20.436C11.321 20.5412 11.1771 20.5938 11 20.5938ZM14.1875 20.5938C14.0104 20.5938 13.8693 20.5412 13.7642 20.436C13.659 20.3364 13.6092 20.2036 13.6147 20.0376L13.9551 8.3335C13.9606 8.16748 14.016 8.03743 14.1211 7.94336C14.2318 7.84375 14.3701 7.79395 14.5361 7.79395C14.7077 7.79395 14.846 7.84375 14.9512 7.94336C15.0618 8.04297 15.1144 8.17578 15.1089 8.3418L14.7686 20.0459C14.763 20.2119 14.7077 20.3447 14.6025 20.4443C14.4974 20.5439 14.359 20.5938 14.1875 20.5938ZM6.37646 4.99658V2.63086C6.37646 1.88932 6.60059 1.30827 7.04883 0.887695C7.5026 0.461589 8.12516 0.248535 8.9165 0.248535H13.0586C13.8499 0.248535 14.4697 0.461589 14.918 0.887695C15.3717 1.30827 15.5986 1.88932 15.5986 2.63086V4.99658H14.146V2.71387C14.146 2.38184 14.0409 2.11621 13.8306 1.91699C13.6203 1.71777 13.3353 1.61816 12.9756 1.61816H8.99951C8.63981 1.61816 8.35482 1.71777 8.14453 1.91699C7.93424 2.11621 7.8291 2.38184 7.8291 2.71387V4.99658H6.37646ZM1.396 5.71875C1.21338 5.71875 1.0529 5.65234 0.914551 5.51953C0.776204 5.38118 0.707031 5.21794 0.707031 5.02979C0.707031 4.84163 0.776204 4.67839 0.914551 4.54004C1.0529 4.40169 1.21338 4.33252 1.396 4.33252H20.5957C20.7839 4.33252 20.9443 4.40169 21.0771 4.54004C21.2155 4.67285 21.2847 4.8361 21.2847 5.02979C21.2847 5.21794 21.2183 5.38118 21.0854 5.51953C20.9526 5.65234 20.7894 5.71875 20.5957 5.71875H1.396ZM6.12744 23.9556C5.64046 23.9556 5.21159 23.856 4.84082 23.6567C4.47559 23.4575 4.18506 23.1781 3.96924 22.8184C3.75342 22.4587 3.63444 22.0409 3.6123 21.5649L2.82373 5.53613H4.25977L5.04834 21.4072C5.06494 21.7393 5.18669 22.016 5.41357 22.2373C5.64046 22.4587 5.91715 22.5693 6.24365 22.5693H15.7397C16.0718 22.5693 16.3512 22.4587 16.5781 22.2373C16.805 22.016 16.9268 21.7393 16.9434 21.4072L17.6904 5.52783H19.1763L18.3877 21.5566C18.3656 22.0326 18.2438 22.4504 18.0225 22.8101C17.8066 23.1698 17.5133 23.4492 17.1426 23.6484C16.7773 23.8532 16.3568 23.9556 15.8809 23.9556H6.12744Z" fill="#F11111"/>
</svg>
