<svg width="28" height="23" viewBox="0 0 28 23" fill="none" xmlns="http://www.w3.org/2000/svg">
<path d="M6.81641 22.3164C6.62272 22.1725 6.50374 21.9788 6.45947 21.7354C6.42074 21.4919 6.45947 21.1958 6.57568 20.8472L8.8418 14.0571L3.02295 9.87354C2.72965 9.66325 2.5249 9.44743 2.40869 9.22607C2.29801 9.00472 2.28141 8.77783 2.35889 8.54541C2.43083 8.31852 2.57747 8.14697 2.79883 8.03076C3.02018 7.91455 3.31348 7.85921 3.67871 7.86475L10.8257 7.90625L13.0088 1.08301C13.1195 0.734375 13.2606 0.474284 13.4321 0.302734C13.6092 0.125651 13.8195 0.0371094 14.063 0.0371094C14.3065 0.0371094 14.514 0.125651 14.6855 0.302734C14.8571 0.474284 15.001 0.734375 15.1172 1.08301L17.292 7.90625L24.439 7.86475C24.8097 7.85921 25.103 7.91455 25.3188 8.03076C25.5402 8.14697 25.6896 8.31852 25.7671 8.54541C25.8446 8.77783 25.8252 9.00472 25.709 9.22607C25.5983 9.44743 25.3936 9.66325 25.0947 9.87354L19.2759 14.0571L21.542 20.8472C21.6637 21.1958 21.7025 21.4919 21.6582 21.7354C21.6139 21.9788 21.4977 22.1725 21.3096 22.3164C21.1104 22.4603 20.889 22.5101 20.6455 22.4658C20.402 22.4271 20.1309 22.2998 19.832 22.084L14.063 17.8506L8.28564 22.084C7.98682 22.2998 7.71566 22.4271 7.47217 22.4658C7.22868 22.5101 7.01009 22.4603 6.81641 22.3164ZM8.11133 20.54C8.12793 20.5622 8.1639 20.5539 8.21924 20.5151L13.5732 16.4644C13.7282 16.3426 13.8887 16.2817 14.0547 16.2817C14.2262 16.2817 14.3923 16.3426 14.5527 16.4644L19.8984 20.5151C19.9593 20.5539 19.998 20.5622 20.0146 20.54C20.0257 20.529 20.0229 20.493 20.0063 20.4321L17.8315 14.082C17.7873 13.9548 17.7679 13.8358 17.7734 13.7251C17.779 13.6144 17.8094 13.512 17.8647 13.418C17.9201 13.3239 18.0059 13.2381 18.1221 13.1606L23.6172 9.31738C23.6725 9.27865 23.6947 9.24821 23.6836 9.22607C23.6781 9.20394 23.6421 9.19287 23.5757 9.19287L16.8604 9.28418C16.6611 9.28971 16.4979 9.24821 16.3706 9.15967C16.2433 9.07113 16.1465 8.93001 16.0801 8.73633L14.1294 2.31982C14.1128 2.25342 14.0907 2.22021 14.063 2.22021C14.0353 2.22021 14.0104 2.25342 13.9883 2.31982L12.0376 8.73633C11.9767 8.93001 11.8799 9.07113 11.7471 9.15967C11.6198 9.24821 11.4565 9.28971 11.2573 9.28418L4.55029 9.19287C4.48389 9.19287 4.44515 9.20394 4.43408 9.22607C4.42301 9.24821 4.44515 9.27865 4.50049 9.31738L10.0039 13.1606C10.1146 13.2381 10.1976 13.3239 10.2529 13.418C10.3138 13.512 10.3442 13.6144 10.3442 13.7251C10.3498 13.8358 10.3304 13.9548 10.2861 14.082L8.11133 20.4321C8.09473 20.493 8.09473 20.529 8.11133 20.54Z" fill="black"/>
</svg>
