<svg width="29" height="36" viewBox="0 0 29 36" fill="none" xmlns="http://www.w3.org/2000/svg">
<path d="M7.99219 22.7617H21.0576C21.3675 22.7617 21.6276 22.6621 21.8379 22.4629C22.0592 22.2526 22.1699 21.9925 22.1699 21.6826C22.1699 21.3727 22.0592 21.1126 21.8379 20.9023C21.6276 20.6921 21.3675 20.5869 21.0576 20.5869H7.99219C7.67122 20.5869 7.40007 20.6921 7.17871 20.9023C6.96842 21.1126 6.86328 21.3727 6.86328 21.6826C6.86328 21.9925 6.96842 22.2526 7.17871 22.4629C7.40007 22.6621 7.67122 22.7617 7.99219 22.7617ZM7.99219 29.0537H21.0576C21.3675 29.0537 21.6276 28.9486 21.8379 28.7383C22.0592 28.528 22.1699 28.2734 22.1699 27.9746C22.1699 27.6647 22.0592 27.4046 21.8379 27.1943C21.6276 26.984 21.3675 26.8789 21.0576 26.8789H7.99219C7.67122 26.8789 7.40007 26.984 7.17871 27.1943C6.96842 27.4046 6.86328 27.6647 6.86328 27.9746C6.86328 28.2734 6.96842 28.528 7.17871 28.7383C7.40007 28.9486 7.67122 29.0537 7.99219 29.0537ZM5.68457 35.8105C3.96908 35.8105 2.67969 35.3789 1.81641 34.5156C0.964193 33.6523 0.538086 32.3519 0.538086 30.6143V5.42969C0.538086 3.70312 0.964193 2.40267 1.81641 1.52832C2.67969 0.653971 3.96908 0.216797 5.68457 0.216797H13.3047V12.4023C13.3047 14.4941 14.3506 15.54 16.4424 15.54H28.4619V30.6143C28.4619 32.3408 28.0303 33.6357 27.167 34.499C26.3148 35.3734 25.0309 35.8105 23.3154 35.8105H5.68457ZM16.4922 13.2656C15.8835 13.2656 15.5791 12.9668 15.5791 12.3691V0.399414C15.9222 0.454753 16.2708 0.604167 16.625 0.847656C16.9792 1.08008 17.3499 1.39551 17.7373 1.79395L26.8848 11.1074C27.2832 11.5169 27.5986 11.8932 27.8311 12.2363C28.0635 12.5794 28.2074 12.9225 28.2627 13.2656H16.4922Z" fill="#EE5916"/>
</svg>
