<svg width="117" height="65" viewBox="0 0 117 65" fill="none" xmlns="http://www.w3.org/2000/svg">
<path d="M0 16.5L20 0V65H0V16.5Z" fill="url(#paint0_linear_2235_361)"/>
<path d="M0 16.5L20 0V65H0V16.5Z" fill="url(#paint1_linear_2235_361)"/>
<path d="M0 16.5L20 0V65H0V16.5Z" fill="url(#paint2_linear_2235_361)"/>
<path d="M52 24L52 42L20 42L20 24L52 24Z" fill="#EE5916"/>
<path d="M55 0L55 18L20 18L20 -1.5299e-06L55 0Z" fill="#EE5916"/>
<path d="M117 0L117 18L59 18L59 -2.53526e-06L117 0Z" fill="#EE5916"/>
<path d="M98 16.5L78 0V65H98V16.5Z" fill="url(#paint3_linear_2235_361)"/>
<defs>
<linearGradient id="paint0_linear_2235_361" x1="10" y1="0" x2="10" y2="65" gradientUnits="userSpaceOnUse">
<stop stop-color="#FE77A2" stop-opacity="0.5"/>
<stop offset="1" stop-color="#FE77A2"/>
</linearGradient>
<linearGradient id="paint1_linear_2235_361" x1="10" y1="0" x2="10" y2="65" gradientUnits="userSpaceOnUse">
<stop stop-color="#D05F83"/>
<stop offset="1" stop-color="#FE77A2"/>
</linearGradient>
<linearGradient id="paint2_linear_2235_361" x1="10" y1="0" x2="10" y2="65" gradientUnits="userSpaceOnUse">
<stop stop-color="#F59C74"/>
<stop offset="1" stop-color="#EE5916"/>
</linearGradient>
<linearGradient id="paint3_linear_2235_361" x1="88" y1="0" x2="88" y2="65" gradientUnits="userSpaceOnUse">
<stop stop-color="#F59C74"/>
<stop offset="1" stop-color="#EE5916"/>
</linearGradient>
</defs>
</svg>
