<svg width="22" height="22" viewBox="0 0 22 22" fill="none" xmlns="http://www.w3.org/2000/svg">
<path d="M5.24756 18.5024L2.89014 19.4819C2.81266 19.5151 2.73796 19.5124 2.66602 19.4736C2.59408 19.4404 2.5415 19.3851 2.5083 19.3076C2.4751 19.2357 2.4751 19.161 2.5083 19.0835L3.5459 16.7925L15.5156 4.83936L17.2173 6.54932L5.24756 18.5024ZM18.1055 5.68604L16.3789 3.96777L17.3916 2.97168C17.6406 2.72266 17.8952 2.58984 18.1553 2.57324C18.4209 2.55111 18.6672 2.65348 18.894 2.88037L19.1929 3.1792C19.4253 3.40609 19.5332 3.65234 19.5166 3.91797C19.5055 4.17806 19.37 4.43538 19.1099 4.68994L18.1055 5.68604Z" fill="black"/>
</svg>
