<svg width="41" height="34" viewBox="0 0 41 34" fill="none" xmlns="http://www.w3.org/2000/svg">
<path d="M0.52832 17.0635L4.24707 11.7842C4.52376 11.3968 4.83919 11.2087 5.19336 11.2197C5.54753 11.2197 5.85742 11.4079 6.12305 11.7842L9.8418 17.0801C10.1628 17.5339 10.2458 17.9323 10.0908 18.2754C9.94694 18.6185 9.58171 18.79 8.99512 18.79H6.52148C6.73177 20.5387 7.23535 22.1602 8.03223 23.6543C8.84017 25.1484 9.86947 26.46 11.1201 27.5889C12.3708 28.7067 13.793 29.5755 15.3867 30.1953C16.9915 30.8151 18.696 31.125 20.5 31.125C22.6471 31.125 24.6393 30.6878 26.4766 29.8135C28.3249 28.9502 29.891 27.777 31.1748 26.2939C31.4404 25.984 31.7559 25.7959 32.1211 25.7295C32.4863 25.6631 32.8294 25.7461 33.1504 25.9785C33.4714 26.2109 33.6484 26.5264 33.6816 26.9248C33.7148 27.3232 33.5765 27.6995 33.2666 28.0537C31.7061 29.8467 29.819 31.2744 27.6055 32.3369C25.403 33.4105 23.0345 33.9473 20.5 33.9473C18.3307 33.9473 16.2832 33.5599 14.3574 32.7852C12.4316 32.0104 10.7051 30.9313 9.17773 29.5479C7.65039 28.1644 6.40527 26.554 5.44238 24.7168C4.49056 22.8796 3.89844 20.904 3.66602 18.79H1.375C0.777344 18.79 0.406576 18.6185 0.262695 18.2754C0.118815 17.9212 0.207357 17.5173 0.52832 17.0635ZM7.75 5.97363C9.31055 4.18066 11.1921 2.75293 13.3945 1.69043C15.6081 0.616862 17.9766 0.0800781 20.5 0.0800781C22.6582 0.0800781 24.7002 0.472982 26.626 1.25879C28.5628 2.03353 30.2949 3.11263 31.8223 4.49609C33.3496 5.87956 34.5892 7.48991 35.541 9.32715C36.5039 11.1644 37.1016 13.14 37.334 15.2539H39.6084C40.2061 15.2539 40.5768 15.4255 40.7207 15.7686C40.8757 16.1117 40.7871 16.5156 40.4551 16.9805L36.7529 22.2598C36.4762 22.6471 36.1608 22.8408 35.8066 22.8408C35.4525 22.8298 35.1426 22.6361 34.877 22.2598L31.1582 16.9639C30.8372 16.5101 30.7487 16.1117 30.8926 15.7686C31.0475 15.4255 31.4183 15.2539 32.0049 15.2539H34.4785C34.2572 13.5052 33.748 11.8838 32.9512 10.3896C32.1543 8.89551 31.1305 7.58952 29.8799 6.47168C28.6292 5.34277 27.2015 4.46842 25.5967 3.84863C24.0029 3.21777 22.304 2.90234 20.5 2.90234C18.375 2.90234 16.3883 3.33952 14.54 4.21387C12.7028 5.07715 11.1367 6.25033 9.8418 7.7334C9.57617 8.04329 9.26074 8.23145 8.89551 8.29785C8.53027 8.35319 8.18717 8.26465 7.86621 8.03223C7.53418 7.7998 7.35156 7.48991 7.31836 7.10254C7.28516 6.7041 7.42904 6.3278 7.75 5.97363Z" fill="#EE5916"/>
</svg>
