<svg width="30" height="38" viewBox="0 0 30 38" fill="none" xmlns="http://www.w3.org/2000/svg">
<path d="M5.4707 37.5283C3.73307 37.5283 2.42708 37.0967 1.55273 36.2334C0.689453 35.3812 0.257812 34.0973 0.257812 32.3818V16.1455C0.257812 14.43 0.689453 13.1462 1.55273 12.2939C2.42708 11.4307 3.73307 10.999 5.4707 10.999H13.3398V23.2842C13.3398 23.7269 13.5003 24.1087 13.8213 24.4297C14.1533 24.7396 14.5407 24.8945 14.9834 24.8945C15.4372 24.8945 15.8245 24.7396 16.1455 24.4297C16.4775 24.1087 16.6436 23.7269 16.6436 23.2842V10.999H24.5127C26.2503 10.999 27.5508 11.4307 28.4141 12.2939C29.2884 13.1572 29.7256 14.4411 29.7256 16.1455V32.3818C29.7256 34.0863 29.2884 35.3701 28.4141 36.2334C27.5508 37.0967 26.2503 37.5283 24.5127 37.5283H5.4707ZM14.9834 12.3105C14.6292 12.3105 14.3193 12.1833 14.0537 11.9287C13.7992 11.6742 13.6719 11.3698 13.6719 11.0156V6.18457L13.7715 3.69434L12.6426 4.87305L10.1357 7.5625C9.90332 7.82812 9.59896 7.96094 9.22266 7.96094C8.86849 7.96094 8.58073 7.85026 8.35938 7.62891C8.13802 7.40755 8.02734 7.12533 8.02734 6.78223C8.02734 6.47233 8.15462 6.18457 8.40918 5.91895L14.0205 0.506836C14.1976 0.34082 14.3581 0.224609 14.502 0.158203C14.6569 0.0917969 14.8174 0.0585938 14.9834 0.0585938C15.1605 0.0585938 15.321 0.0917969 15.4648 0.158203C15.6198 0.224609 15.7803 0.34082 15.9463 0.506836L21.5576 5.91895C21.8232 6.18457 21.9561 6.47233 21.9561 6.78223C21.9561 7.12533 21.8398 7.40755 21.6074 7.62891C21.375 7.85026 21.0872 7.96094 20.7441 7.96094C20.3789 7.96094 20.0801 7.82812 19.8477 7.5625L17.3242 4.87305L16.2119 3.69434L16.3115 6.18457V11.0156C16.3115 11.3698 16.1787 11.6742 15.9131 11.9287C15.6585 12.1833 15.3486 12.3105 14.9834 12.3105Z" fill="#EE5916"/>
</svg>
