<svg width="38" height="36" viewBox="0 0 38 36" fill="none" xmlns="http://www.w3.org/2000/svg">
<path d="M7.62793 35.1504C7.28483 34.8958 7.07454 34.5527 6.99707 34.1211C6.93066 33.6895 7.0026 33.1748 7.21289 32.5771L10.6826 22.251L1.81738 15.876C1.2972 15.5107 0.9375 15.1344 0.738281 14.7471C0.539062 14.3597 0.505859 13.9613 0.638672 13.5518C0.771484 13.1533 1.03158 12.8545 1.41895 12.6553C1.80632 12.4561 2.32096 12.362 2.96289 12.373L13.8369 12.4395L17.1406 2.06348C17.3398 1.45475 17.5889 0.995443 17.8877 0.685547C18.1976 0.375651 18.5628 0.220703 18.9834 0.220703C19.415 0.220703 19.7803 0.375651 20.0791 0.685547C20.389 0.995443 20.6436 1.45475 20.8428 2.06348L24.1465 12.4395L35.0205 12.373C35.6624 12.362 36.1771 12.4561 36.5645 12.6553C36.9518 12.8545 37.2119 13.1533 37.3447 13.5518C37.4775 13.9613 37.4443 14.3597 37.2451 14.7471C37.0459 15.1344 36.6862 15.5107 36.166 15.876L27.3008 22.251L30.7705 32.5771C30.9808 33.1748 31.0472 33.6895 30.9697 34.1211C30.9033 34.5527 30.6986 34.8958 30.3555 35.1504C30.0124 35.416 29.625 35.5046 29.1934 35.416C28.7617 35.3385 28.2913 35.1172 27.7822 34.752L18.9834 28.2939L10.2012 34.752C9.69206 35.1172 9.22168 35.3385 8.79004 35.416C8.3584 35.5046 7.97103 35.416 7.62793 35.1504Z" fill="#EE5916"/>
</svg>
