<svg width="24" height="22" viewBox="0 0 24 22" fill="none" xmlns="http://www.w3.org/2000/svg">
<path d="M9.65088 20.2871C9.29671 20.2871 8.98682 20.1183 8.72119 19.7808L3.20117 12.8911C3.11263 12.7804 3.04622 12.6698 3.00195 12.5591C2.95768 12.4429 2.93555 12.3322 2.93555 12.2271C2.93555 11.978 3.01579 11.776 3.17627 11.6211C3.33675 11.4606 3.54427 11.3804 3.79883 11.3804C4.10319 11.3804 4.36328 11.527 4.5791 11.8203L9.60938 18.2119L19.4541 2.65625C19.5592 2.4847 19.6699 2.36572 19.7861 2.29932C19.9023 2.22738 20.0462 2.19141 20.2178 2.19141C20.4723 2.19141 20.6743 2.26888 20.8237 2.42383C20.9787 2.57324 21.0562 2.77523 21.0562 3.02979C21.0562 3.12939 21.0368 3.23177 20.998 3.33691C20.9648 3.44206 20.9067 3.55827 20.8237 3.68555L10.5474 19.7974C10.4422 19.9578 10.3149 20.0796 10.1655 20.1626C10.0161 20.2456 9.84456 20.2871 9.65088 20.2871Z" fill="black"/>
</svg>
